<svg width="24" height="24" viewBox="0 0 24 24" fill="none" xmlns="http://www.w3.org/2000/svg">
<path d="M20.25 2.75H3.75C3.48478 2.75 3.23043 2.85536 3.04289 3.04289C2.85536 3.23043 2.75 3.48478 2.75 3.75V20.25C2.75 20.5152 2.85536 20.7696 3.04289 20.9571C3.23043 21.1446 3.48478 21.25 3.75 21.25H20.25C20.5152 21.25 20.7696 21.1446 20.9571 20.9571C21.1446 20.7696 21.25 20.5152 21.25 20.25V3.75C21.25 3.48478 21.1446 3.23043 20.9571 3.04289C20.7696 2.85536 20.5152 2.75 20.25 2.75Z" stroke="#0094FF" stroke-width="0.5" stroke-linecap="round" stroke-linejoin="round"/>
<path d="M10.1865 5.75H18.4375V8.25H10.1865V5.75ZM10.1865 10.75H18.4375V13.25H10.1865V10.75ZM10.1865 15.75H18.4375V18.25H10.1865V15.75ZM5.5625 5.7505H8.0625V8.2505H5.5625V5.7505ZM5.5625 10.75H8.0625V13.25H5.5625V10.75ZM5.5625 15.75H8.0625V18.25H5.5625V15.75Z" stroke="#0094FF" stroke-width="0.5" stroke-linecap="round" stroke-linejoin="round"/>
</svg>
