<svg width="24" height="24" viewBox="0 0 24 24" fill="none" xmlns="http://www.w3.org/2000/svg">
<path d="M12 20.16C7.48797 20.16 3.83997 16.512 3.83997 12C3.83997 7.48797 7.48797 3.83997 12 3.83997C16.512 3.83997 20.16 7.48797 20.16 12C20.16 16.512 16.512 20.16 12 20.16ZM12 4.79997C8.01597 4.79997 4.79997 8.01597 4.79997 12C4.79997 15.984 8.01597 19.2 12 19.2C15.984 19.2 19.2 15.984 19.2 12C19.2 8.01597 15.984 4.79997 12 4.79997Z" fill="white"/>
<path d="M7.68005 11.52H16.3201V12.48H7.68005V11.52Z" fill="white"/>
<path d="M11.52 7.68005H12.48V16.3201H11.52V7.68005Z" fill="white"/>
</svg>
