<svg width="16" height="12" viewBox="0 0 16 12" fill="none" xmlns="http://www.w3.org/2000/svg">
<path fill-rule="evenodd" clip-rule="evenodd" d="M1.55732 1.89794C1.6745 1.51381 2.0317 1.23438 2.45416 1.23438H12.9542C13.3766 1.23438 13.7338 1.51381 13.851 1.89794L7.70416 5.99583L1.55732 1.89794ZM0.391687 2.16157C0.391582 2.16757 0.391574 2.17357 0.391661 2.17957V9.67188C0.391661 10.811 1.31507 11.7344 2.45416 11.7344H12.9542C14.0933 11.7344 15.0167 10.811 15.0167 9.67188V2.17956M13.8917 3.22292V9.67188C13.8917 10.1896 13.4719 10.6094 12.9542 10.6094H2.45416C1.93639 10.6094 1.51666 10.1896 1.51666 9.67188V3.22292L7.39214 7.1399C7.58109 7.26587 7.82724 7.26587 8.01618 7.1399L13.8917 3.22292ZM15.0166 2.16158C15.0111 1.02723 14.0898 0.109375 12.9542 0.109375H2.45416C1.31851 0.109375 0.397233 1.02723 0.391687 2.16157" fill="white"/>
</svg>
