<svg width="343" height="356" viewBox="0 0 343 356" fill="none" xmlns="http://www.w3.org/2000/svg">
<path d="M230.98 20.0048C256.462 32.1317 282.877 44.5169 299.725 68.2648C317.329 93.0779 315.542 130.85 315.166 161.979C314.795 192.711 354.107 245.026 339.906 271.757C325.836 298.242 296.712 335.518 271.602 349.941C246.816 364.179 224.425 348.69 196.306 349.941C167.51 351.223 103.479 330.023 77.1012 317.619C50.1088 304.925 31.0788 278.016 17.3165 250.156C3.97521 223.148 -1.16616 192.48 0.218337 161.979C1.549 132.665 11.2758 104.989 25.0585 79.5992C38.6458 54.5691 55.4983 31.0004 79.0642 16.7315C102.343 2.63652 129.662 -0.51258 156.416 0.0638819C182.476 0.625411 207.17 8.67392 230.98 20.0048Z" fill="#0094FF" fill-opacity="0.17"/>
</svg>
