<svg width="15" height="14" viewBox="0 0 15 14" fill="none" xmlns="http://www.w3.org/2000/svg">
<path fill-rule="evenodd" clip-rule="evenodd" d="M3 1.5625C2.48223 1.5625 2.0625 1.98223 2.0625 2.5V11.5C2.0625 12.0178 2.48223 12.4375 3 12.4375H12C12.5178 12.4375 12.9375 12.0178 12.9375 11.5V2.5C12.9375 1.98223 12.5178 1.5625 12 1.5625H3ZM0.9375 2.5C0.9375 1.36091 1.86091 0.4375 3 0.4375H12C13.1391 0.4375 14.0625 1.36091 14.0625 2.5V11.5C14.0625 12.6391 13.1391 13.5625 12 13.5625H3C1.86091 13.5625 0.9375 12.6391 0.9375 11.5V2.5ZM4.5 5.6875C4.81066 5.6875 5.0625 5.93934 5.0625 6.25V10C5.0625 10.3107 4.81066 10.5625 4.5 10.5625C4.18934 10.5625 3.9375 10.3107 3.9375 10V6.25C3.9375 5.93934 4.18934 5.6875 4.5 5.6875ZM5.0625 4C5.0625 3.68934 4.81066 3.4375 4.5 3.4375C4.18934 3.4375 3.9375 3.68934 3.9375 4V4.0075C3.9375 4.31816 4.18934 4.57 4.5 4.57C4.81066 4.57 5.0625 4.31816 5.0625 4.0075V4ZM7.98036 5.95717C7.88156 5.79544 7.70339 5.6875 7.5 5.6875C7.18934 5.6875 6.9375 5.93934 6.9375 6.25V7.75V10C6.9375 10.3107 7.18934 10.5625 7.5 10.5625C7.81066 10.5625 8.0625 10.3107 8.0625 10V7.75C8.0625 7.50136 8.16127 7.2629 8.33709 7.08709C8.5129 6.91127 8.75136 6.8125 9 6.8125C9.24864 6.8125 9.4871 6.91127 9.66291 7.08709C9.83873 7.2629 9.9375 7.50136 9.9375 7.75V10C9.9375 10.3107 10.1893 10.5625 10.5 10.5625C10.8107 10.5625 11.0625 10.3107 11.0625 10V7.75C11.0625 7.20299 10.8452 6.67839 10.4584 6.29159C10.0716 5.9048 9.54701 5.6875 9 5.6875C8.63936 5.6875 8.28845 5.78196 7.98036 5.95717Z" fill="white"/>
</svg>
