<svg width="12" height="14" viewBox="0 0 12 14" fill="none" xmlns="http://www.w3.org/2000/svg">
<path d="M4.41553 6.922C3.82219 6.922 3.24217 7.09794 2.74882 7.42759C2.25547 7.75723 1.87095 8.22577 1.64389 8.77395C1.41683 9.32213 1.35742 9.92533 1.47317 10.5073C1.58893 11.0892 1.87465 11.6238 2.29421 12.0433C2.71377 12.4629 3.24831 12.7486 3.83026 12.8644C4.4122 12.9801 5.0154 12.9207 5.56358 12.6936C6.11176 12.4666 6.58029 12.0821 6.90994 11.5887C7.23958 11.0954 7.41553 10.5153 7.41553 9.922V0.921997C7.41553 1.91656 7.81062 2.87039 8.51388 3.57365C9.21714 4.27691 10.171 4.672 11.1655 4.672" stroke="white" stroke-width="1.125" stroke-linecap="round" stroke-linejoin="round"/>
</svg>
