<svg width="17" height="14" viewBox="0 0 17 14" fill="none" xmlns="http://www.w3.org/2000/svg">
<path d="M15.7275 0.929507C14.9775 1.29701 14.2425 1.44626 13.4775 1.67201C12.6368 0.723257 11.3903 0.670757 10.1925 1.11926C8.99479 1.56776 8.21029 2.66426 8.22754 3.92201V4.67201C5.79379 4.73426 3.62629 3.62576 2.22754 1.67201C2.22754 1.67201 -0.908961 7.24676 5.22754 9.92201C3.82354 10.8573 2.42329 11.488 0.727539 11.422C3.20854 12.7743 5.91229 13.2393 8.25304 12.5598C10.938 11.7798 13.1445 9.76751 13.9913 6.75326C14.2439 5.83651 14.3693 4.8894 14.364 3.93851C14.3625 3.75176 15.4965 1.85951 15.7275 0.928757V0.929507Z" stroke="white" stroke-width="1.125" stroke-linecap="round" stroke-linejoin="round"/>
</svg>
